<?xml version="1.0" encoding="UTF-8" standalone="no"?>
<!-- Created with Inkscape (http://www.inkscape.org/) -->

<svg
   xmlns:dc="http://purl.org/dc/elements/1.1/"
   xmlns:cc="http://creativecommons.org/ns#"
   xmlns:rdf="http://www.w3.org/1999/02/22-rdf-syntax-ns#"
   xmlns:svg="http://www.w3.org/2000/svg"
   xmlns="http://www.w3.org/2000/svg"
   xmlns:xlink="http://www.w3.org/1999/xlink"
   xmlns:sodipodi="http://sodipodi.sourceforge.net/DTD/sodipodi-0.dtd"
   xmlns:inkscape="http://www.inkscape.org/namespaces/inkscape"
   sodipodi:docname="logo-final.svg"
   viewBox="0 0 192 192"
   height="192"
   width="192"
   xml:space="preserve"
   inkscape:version="0.92.4 5da689c313, 2019-01-14"
   version="1.1"
   id="svg2"
   inkscape:export-filename="/home/ochii/cso2_logo/logo-48.png"
   inkscape:export-xdpi="30.31579"
   inkscape:export-ydpi="30.31579"><sodipodi:namedview
     inkscape:current-layer="layer4"
     inkscape:window-maximized="1"
     inkscape:window-y="36"
     inkscape:window-x="0"
     inkscape:cy="115.46664"
     inkscape:cx="52.204603"
     inkscape:zoom="2.8783614"
     showgrid="false"
     id="namedview4"
     inkscape:window-height="1017"
     inkscape:window-width="1920"
     inkscape:pageshadow="2"
     inkscape:pageopacity="0"
     guidetolerance="10"
     gridtolerance="10"
     objecttolerance="10"
     borderopacity="1"
     bordercolor="#666666"
     pagecolor="#d7d7d7"
     inkscape:snap-bbox="true"
     inkscape:bbox-paths="true"
     inkscape:bbox-nodes="true"
     inkscape:snap-bbox-edge-midpoints="true"
     inkscape:snap-bbox-midpoints="true"
     inkscape:object-paths="true"
     inkscape:snap-intersection-paths="true"
     inkscape:snap-smooth-nodes="true"
     inkscape:snap-midpoints="true"
     inkscape:pagecheckerboard="true"><inkscape:grid
       empspacing="4"
       type="xygrid"
       id="grid4646" /></sodipodi:namedview><metadata
     id="metadata8"><rdf:RDF><cc:Work
         rdf:about=""><dc:format>image/svg+xml</dc:format><dc:type
           rdf:resource="http://purl.org/dc/dcmitype/StillImage" /><dc:title></dc:title></cc:Work></rdf:RDF></metadata><defs
     id="defs6"><linearGradient
       inkscape:collect="always"
       id="linearGradient1353"><stop
         style="stop-color:#fefefe;stop-opacity:1"
         offset="0"
         id="stop1349" /><stop
         style="stop-color:#c3c3c3;stop-opacity:1"
         offset="1"
         id="stop1351" /></linearGradient><linearGradient
       inkscape:collect="always"
       xlink:href="#linearGradient1353"
       id="linearGradient2655"
       gradientUnits="userSpaceOnUse"
       gradientTransform="matrix(0.96710526,0,0,0.96710526,3.1578947,3.1574115)"
       x1="168"
       y1="23.999399"
       x2="24"
       y2="168.59853" /></defs><g
     inkscape:groupmode="layer"
     id="layer4"
     inkscape:label="icon_outline"
     style="display:inline"
     sodipodi:insensitive="true"><rect
       style="display:inline;opacity:1;vector-effect:none;fill:#6a6a6a;fill-opacity:1;fill-rule:nonzero;stroke-width:1.33333337;stroke-linecap:butt;stroke-linejoin:miter;stroke-miterlimit:4;stroke-dasharray:none;stroke-dashoffset:0;stroke-opacity:1;paint-order:stroke fill markers"
       id="rect1347-5"
       width="152"
       height="152"
       x="20"
       y="20.0005"
       ry="4"
       inkscape:export-xdpi="128"
       inkscape:export-ydpi="128" /></g><g
     inkscape:groupmode="layer"
     id="layer2"
     inkscape:label="icon"
     style="display:inline"
     sodipodi:insensitive="true"><rect
       style="opacity:1;vector-effect:none;fill:url(#linearGradient2655);fill-opacity:1;fill-rule:nonzero;stroke-width:1.28947377;stroke-linecap:butt;stroke-linejoin:miter;stroke-miterlimit:4;stroke-dasharray:none;stroke-dashoffset:0;stroke-opacity:1;paint-order:stroke fill markers"
       id="rect1347"
       width="147"
       height="147"
       x="22.5"
       y="22.5"
       ry="3.9999998" /></g><g
     inkscape:groupmode="layer"
     id="layer3"
     inkscape:label="new_leet"
     style="display:inline"><path
       style="fill:#182038;fill-opacity:1;stroke-width:0.04558955"
       d="m 113.81978,167.9738 c -5.89944,-0.59568 -12.39563,-1.06275 -16.772616,-5.39455 -5.566035,-4.26556 -11.104379,-8.55471 -16.541982,-12.97239 -3.7141,-4.23904 -6.040818,-9.38985 -9.326168,-13.7212 -3.072121,-6.39349 -11.013635,-5.76461 -14.388405,-11.43927 -3.095183,-4.97304 -6.210522,-11.22414 -4.517037,-17.08117 2.94721,-3.35497 4.304527,-5.7499 1.451976,-9.892111 -3.348526,-5.796612 -3.102701,-11.789463 -3.99211,-18.072534 -3.725594,-6.229249 1.870531,-11.599455 -0.23473,-18.391273 -0.234503,-4.696262 6.05182,-10.336285 4.524767,-13.153387 5.600994,-0.813159 5.156852,-7.762761 11.024576,-9.318899 3.549606,-2.782393 3.455115,-7.108436 9.001509,-6.675081 6.076106,-2.3182 12.503881,-2.094461 18.11826,-5.466489 3.882684,-1.770539 8.21541,-4.993701 7.217054,1.573601 4.189176,3.084434 10.916306,0.353153 15.918496,1.992488 6.50214,1.183122 10.96079,5.746167 12.5318,11.729066 3.3338,4.485197 6.64093,7.186228 7.8122,12.306457 5.66435,1.182461 1.74768,7.895486 3.18849,10.708685 -2.87051,5.809348 5.88506,10.494029 2.26326,16.372629 1.08731,5.333803 3.068,11.090456 2.31607,16.993917 0.35943,7.644161 -4.4768,14.693111 -3.13439,22.436771 0.54836,9.9348 1.49372,20.28938 -2.61806,29.70853 -1.71037,5.3494 -2.58209,11.9143 -8.41965,14.68944 -4.60252,2.76378 -10.19269,2.72818 -15.42331,3.06677 z m -0.26091,-8.69183 c 5.80776,0.29067 0.15115,-12.95601 7.71164,-7.87586 0.36303,3.58595 2.21446,6.80293 5.82513,3.55486 4.13323,-3.2018 3.18431,-10.24813 3.12929,-14.38843 -4.76097,-4.05944 -11.56631,-0.27819 -16.96729,0.44556 -5.79437,0.63374 -13.497796,3.13451 -13.18643,9.96177 -0.308412,6.41969 8.14757,8.8551 13.48766,8.3021 z m -19.647748,-6.44466 c 1.458573,-5.28903 -0.655972,-11.97936 6.106138,-14.72507 4.63369,-4.48709 11.72322,-2.78194 17.59332,-4.25631 5.08882,0.0578 11.16609,-2.7786 15.42546,1.24326 3.81497,0.49078 3.45411,13.42407 5.47525,5.93091 1.13474,-6.78022 -1.00773,-13.56931 0.27711,-20.32961 -0.59715,-5.7477 -7.56746,2.44715 -11.4044,-0.52456 -6.35041,-0.71297 -10.09407,-5.56476 -13.86049,-9.80742 -5.63157,-2.51023 -8.40599,4.75946 -8.7037,8.95046 -1.89606,4.67002 -5.635312,9.66528 -10.731406,11.56256 -6.460865,2.68756 -14.369876,-1.72321 -15.523089,-8.27217 -1.631343,-2.91891 -5.668321,-4.03569 -8.45038,-4.70013 -4.407132,4.60065 -2.567213,11.16975 2.895355,14.13864 6.706165,5.00212 9.539649,13.38997 16.761108,17.88395 1.403707,0.9276 2.221719,2.80892 4.139724,2.90549 z M 91.20487,128.76588 c 8.454142,-2.18933 13.71085,-11.45002 12.69722,-19.48461 -4.005464,-5.55305 -11.958773,-1.07574 -17.354347,-5.2e-4 -6.831341,0.47291 -9.433544,8.72684 -5.786865,13.6724 1.914359,3.61082 5.972616,6.79223 10.443992,5.81261 z M 76.39009,117.72459 c 4.243945,-4.09277 -1.553518,-11.04987 3.422928,-14.61983 5.347449,-2.87393 11.033813,1.52832 16.67652,0.53479 5.944752,-2.33307 10.298452,3.38155 15.750572,-1.33358 4.53966,-4.711511 11.08844,-7.223632 16.21369,-11.115774 5.70565,-2.252288 9.02245,7.452323 12.6963,5.608303 -0.26812,-6.933589 -8.47459,-8.493047 -10.40168,-14.797411 -2.18988,-6.578104 -1.94049,-14.253499 -6.38868,-19.981593 -5.94292,-1.516394 -11.19799,1.533019 -15.91016,3.266408 -2.70193,2.107217 -5.66295,5.102437 -8.06163,6.146252 0.0868,5.340621 -7.862568,-2.367982 -7.218063,0.746119 -3.952656,1.492285 -9.754878,-0.918222 -14.284416,1.876208 -6.676346,0.354961 -8.857385,6.900503 -7.826945,12.330091 0.69366,6.032811 4.634219,11.742056 2.568049,17.979417 -1.414741,5.04053 -3.705905,10.94398 2.763515,13.3606 z m 54.32095,0.0655 c 7.51906,-0.81318 10.30549,-8.86776 9.42339,-15.11581 -0.0403,-6.412621 -7.73165,-9.09592 -12.83829,-5.593361 -4.76443,2.39956 -12.2709,3.693021 -13.02041,9.823031 0.79674,5.54384 7.10113,9.3328 12.48267,10.57163 1.2983,0.25362 2.62813,0.36645 3.95264,0.31434 z m -24.72674,-6.28281 c 2.37995,-3.27469 10.94179,-1.66579 6.20044,-7.34709 -5.37215,0.92407 -9.16006,1.51546 -6.20044,7.34709 z m 35.628,-9.76245 c 3.65869,-3.151951 -2.09267,-2.406581 0,0 z"
       id="path115-6"
       inkscape:connector-curvature="0"
       inkscape:export-xdpi="161"
       inkscape:export-ydpi="161" /></g></svg>