<?xml version="1.0" encoding="UTF-8" standalone="no"?>
<!-- Created with Inkscape (http://www.inkscape.org/) -->

<svg
   xmlns:dc="http://purl.org/dc/elements/1.1/"
   xmlns:cc="http://creativecommons.org/ns#"
   xmlns:rdf="http://www.w3.org/1999/02/22-rdf-syntax-ns#"
   xmlns:svg="http://www.w3.org/2000/svg"
   xmlns="http://www.w3.org/2000/svg"
   xmlns:xlink="http://www.w3.org/1999/xlink"
   xmlns:sodipodi="http://sodipodi.sourceforge.net/DTD/sodipodi-0.dtd"
   xmlns:inkscape="http://www.inkscape.org/namespaces/inkscape"
   sodipodi:docname="logo-final-large.svg"
   viewBox="0 0 192 192"
   height="192"
   width="192"
   xml:space="preserve"
   inkscape:version="0.92.4 5da689c313, 2019-01-14"
   version="1.1"
   id="svg2"
   inkscape:export-filename="/home/ochii/cso2_logo/logo-16-test.png"
   inkscape:export-xdpi="10.105263"
   inkscape:export-ydpi="10.105263"><sodipodi:namedview
     inkscape:current-layer="layer1"
     inkscape:window-maximized="1"
     inkscape:window-y="36"
     inkscape:window-x="0"
     inkscape:cy="118.59342"
     inkscape:cx="63.322039"
     inkscape:zoom="2.8783614"
     showgrid="false"
     id="namedview4"
     inkscape:window-height="1017"
     inkscape:window-width="1920"
     inkscape:pageshadow="2"
     inkscape:pageopacity="0"
     guidetolerance="10"
     gridtolerance="10"
     objecttolerance="10"
     borderopacity="1"
     bordercolor="#666666"
     pagecolor="#d7d7d7"
     inkscape:snap-bbox="true"
     inkscape:bbox-paths="true"
     inkscape:bbox-nodes="true"
     inkscape:snap-bbox-edge-midpoints="true"
     inkscape:snap-bbox-midpoints="true"
     inkscape:object-paths="true"
     inkscape:snap-intersection-paths="true"
     inkscape:snap-smooth-nodes="true"
     inkscape:snap-midpoints="true"
     inkscape:pagecheckerboard="true"><inkscape:grid
       empspacing="4"
       type="xygrid"
       id="grid4646" /></sodipodi:namedview><metadata
     id="metadata8"><rdf:RDF><cc:Work
         rdf:about=""><dc:format>image/svg+xml</dc:format><dc:type
           rdf:resource="http://purl.org/dc/dcmitype/StillImage" /><dc:title /></cc:Work></rdf:RDF></metadata><defs
     id="defs6"><linearGradient
       inkscape:collect="always"
       id="linearGradient1353"><stop
         style="stop-color:#fefefe;stop-opacity:1"
         offset="0"
         id="stop1349" /><stop
         style="stop-color:#c3c3c3;stop-opacity:1"
         offset="1"
         id="stop1351" /></linearGradient><linearGradient
       inkscape:collect="always"
       xlink:href="#linearGradient1353"
       id="linearGradient2655"
       gradientUnits="userSpaceOnUse"
       gradientTransform="matrix(0.96710526,0,0,0.96710526,3.1578947,3.1574115)"
       x1="168"
       y1="23.999399"
       x2="24"
       y2="168.59853" /></defs><g
     inkscape:groupmode="layer"
     id="layer4"
     inkscape:label="icon_outline"
     style="display:inline"
     sodipodi:insensitive="true"><rect
       style="display:inline;opacity:1;vector-effect:none;fill:#6a6a6a;fill-opacity:1;fill-rule:nonzero;stroke-width:1.33333337;stroke-linecap:butt;stroke-linejoin:miter;stroke-miterlimit:4;stroke-dasharray:none;stroke-dashoffset:0;stroke-opacity:1;paint-order:stroke fill markers"
       id="rect1347-5"
       width="152"
       height="152"
       x="20"
       y="20.0005"
       ry="4"
       inkscape:export-xdpi="128"
       inkscape:export-ydpi="128" /></g><g
     inkscape:groupmode="layer"
     id="layer2"
     inkscape:label="icon"
     style="display:inline"
     sodipodi:insensitive="true"><rect
       style="opacity:1;vector-effect:none;fill:url(#linearGradient2655);fill-opacity:1;fill-rule:nonzero;stroke-width:1.28947377;stroke-linecap:butt;stroke-linejoin:miter;stroke-miterlimit:4;stroke-dasharray:none;stroke-dashoffset:0;stroke-opacity:1;paint-order:stroke fill markers"
       id="rect1347"
       width="147"
       height="147"
       x="22.5"
       y="22.5"
       ry="3.9999998" /></g><g
     inkscape:groupmode="layer"
     id="layer1"
     inkscape:label="leet"><g
       transform="matrix(0.95220722,0,0,0.95220722,-17.821146,-71.40878)"
       style="display:inline;fill:#1a1a1a"
       id="g81"
       inkscape:export-xdpi="16"
       inkscape:export-ydpi="16"><path
         style="fill:#182038;fill-opacity:1;stroke-width:0.35277778"
         d="m 104.95422,231.54364 c -6.638388,-5.23397 -7.394791,-15.76274 -15.74256,-19.16542 -7.780282,-5.42641 -15.054501,-14.02979 -14.438001,-24.01643 3.520546,-5.06855 5.273177,-10.65091 0.716432,-15.77497 -3.289086,-5.88305 -1.178006,-12.78143 -3.5255,-18.78286 -1.382482,-5.33911 1.984583,-9.75568 0.679624,-15.4596 0.317658,-7.94314 5.819168,-14.11994 9.904386,-20.47633 4.348212,-2.75338 7.450274,-5.55307 10.466987,-9.93217 3.771224,-2.09533 1.269569,6.86663 4.909479,1.05998 -2.09309,-4.07587 8.265233,-7.12654 8.724003,-1.34217 -2.77281,3.61859 3.28125,8.23721 1.8959,1.96642 0.79758,-6.03945 9.72907,-0.73288 7.77255,-6.75593 1.56347,-4.054998 7.04048,-3.449999 7.20827,0.69954 6.23047,1.02266 6.64726,10.18844 -0.58812,8.61903 -2.94153,-0.81971 -11.99875,-3.58899 -11.07236,-0.91057 7.75631,0.62415 -2.19105,2.21664 -3.68051,3.2246 2.25753,-0.29271 10.56915,2.46269 7.19516,3.90465 -3.01659,-3.15036 -12.82799,-0.0135 -4.90828,2.49606 3.05864,1.95648 10.50039,8.91723 5.94636,11.51958 -4.34733,2.11765 -9.04426,-5.46622 -10.95386,-2.87279 3.02598,1.96839 11.74412,6.9063 3.5344,8.23723 -4.41213,-1.49018 -9.41196,-7.67466 -13.376854,-6.46832 3.699986,2.76174 8.352214,6.63288 11.774414,8.48816 5.66356,-2.31539 15.15714,6.40343 12.88304,8.90491 -5.84895,-4.41128 -11.10713,-0.2907 -17.58567,0.93045 -6.386749,0.93141 -8.03273,5.613 -7.970978,11.3825 0.09378,3.32027 -8.30197,2.28818 -2.846122,3.71362 3.691624,-1.87907 9.8772,2.20298 7.982246,5.46396 -4.625266,-2.93433 -3.095914,3.6455 0.247894,4.42933 2.60279,2.23924 -4.097234,2.79092 0.37158,3.82477 5.6377,4.66564 12.57812,4.65933 19.34519,4.43081 2.74838,-0.41154 14.34234,-1.37049 6.9619,1.29926 -7.09445,1.38765 -14.87,0.83706 -21.21487,4.74867 -4.14056,2.77977 -3.61585,9.25805 -8.298866,10.1541 7.835406,-2.16737 5.385636,9.30541 12.151266,9.83915 7.68239,2.81913 14.38863,-4.57769 16.75939,-11.16618 3.51705,-3.10612 1.94033,-10.00842 0.58027,-11.91473 3.99078,-0.22918 12.75447,-6.72011 10.23865,0.79363 0.11857,1.49598 -7.49748,-0.71391 -5.41113,3.36555 1.81449,-0.6736 -0.16859,3.80396 2.90683,1.48375 2.9056,-5.5976 9.58307,4.8406 14.60668,5.47819 8.54646,3.47331 15.37798,-4.83987 15.83253,-12.743 1.58416,0.10555 -0.77311,8.10359 -1.38837,11.2549 0.62894,9.63729 1.44059,19.55094 -0.43253,29.15758 -0.58717,-7.83717 1.29314,-15.8538 -0.886,-23.55199 -4.63732,-2.82608 -10.63581,2.88169 -15.59639,-1.46695 -4.93542,-4.13063 -13.3742,-11.30561 -17.15968,-1.73854 -4.3185,6.49042 -10.94245,11.79482 -11.45159,20.02813 -1.79789,4.40426 -0.81554,12.0363 4.86706,6.62056 6.37538,-2.40687 2.62446,-11.05917 7.37776,-13.25572 4.33812,1.27994 10.18826,9.21825 13.34775,1.69439 2.06596,-5.49349 1.27433,3.57413 5.63198,2.63036 7.75824,-0.50338 8.63693,6.93313 11.4074,11.95674 3.3796,0.82585 0.43098,10.28988 -1.39721,13.90871 -3.3115,7.00648 -11.30518,11.90481 -19.08813,9.61483 -13.7448,-2.19887 -24.14914,-11.97508 -35.2138,-19.52943 z m 36.40526,11.81996 c 2.06125,-6.98068 -13.94101,-2.35731 -4.904,-0.51106 1.17728,1.33156 3.6225,2.14837 4.904,0.51106 z m 7.59984,-0.75999 c 7.63154,-3.69274 8.69451,-14.42463 5.65706,-21.43067 -4.6166,-0.8273 -7.19755,6.51166 -11.78219,7.72689 -3.35686,2.73432 -0.018,3.78011 1.50252,4.13848 0.0458,4.24989 -3.53521,12.277 4.62261,9.5653 z M 115.69449,228.0138 c 2.08884,-3.72275 -4.81551,-9.03486 -3.54173,-2.61141 0.6276,0.96981 2.90444,6.76198 3.54173,2.61141 z m 27.05469,-3.62083 c 3.67734,0.79025 11.58201,-6.63889 3.77972,-5.31788 -2.1339,-0.0106 -11.13693,6.32463 -3.77972,5.31788 z m -8.9593,-39.02597 c -1.81791,-1.43109 -1.95165,1.8568 0,0 z m -36.512497,-9.93267 c -1.044775,-5.14564 -4.723252,-0.78931 0,0 z m -4.38466,-7.19006 c 0.288677,-2.89351 -4.619998,1.94799 1e-5,0 z m 7.559657,-20.62449 c -2.793802,-2.59652 -3.532504,1.21903 0,0 z m 1.23472,-2.34659 c -2.791538,-1.86328 -3.810292,2.40096 0,0 z m 9.41329,-0.55207 c -1.41857,-0.51872 1.20258,1.57354 0,0 z m -12.411897,-2.03351 c -2.143137,-2.89568 -2.880114,1.90778 0,0 z m 1.668347,-1.98374 c -1.354792,-1.1221 -0.547895,0.91722 0,0 z m -4.137787,-6.12781 c -1.965216,-3.10264 -3.316229,0.38023 0,0 z m 19.916867,-4.26677 c -2.23965,-1.984 -0.37907,2.02384 0,0 z m -9.33354,-4.01174 c -1.30206,-2.63719 -2.02472,2.22443 0,0 z m -2.70769,-5.721 c -0.9031,-2.96586 -3.71816,1.09696 0,0 z m -3.64231,-0.82621 c -1.753175,-2.78306 0.13368,2.18804 0,0 z m 3.175,-8.81945 c -0.86127,-1.67651 -0.89609,1.66136 0,0 z m 20.67678,-1.47462 c 0.75494,-4.91705 -9.55194,-2.1727 -2.66832,-0.0157 0.80301,0.32558 1.9873,0.92958 2.66832,0.0157 z m 1.901,-2.0531 c -1.28621,-1.60172 -1.24528,1.18953 0,0 z m -6.22167,-3.95183 c -2.00506,-2.45195 -3.04297,3.1856 0,0 z m 12.48347,78.39175 c 5.09247,-4.51574 12.8615,-4.88682 17.18478,-10.50392 5.06099,0.19795 10.4736,-2.60209 7.09248,-8.3214 -0.43784,-6.86327 9.37727,-6.77504 7.48591,0.38074 -0.65783,2.80777 4.01829,12.39129 0.009,8.20073 3.29071,8.96825 -6.05672,-0.97459 -10.41251,1.05054 -7.3498,2.10196 -13.41031,7.48302 -20.70074,9.50945 -0.26811,0.0225 -0.44213,-0.20303 -0.65876,-0.31614 z m 31.84537,-1.40092 c -0.84328,-5.45397 6.19561,-1.93099 1.50655,1.17855 -0.76071,0.34776 -1.50736,-0.46295 -1.50655,-1.17855 z m -4.00532,-23.88535 c -1.57976,-4.95783 4.91908,0.25278 0,0 z m -1.11713,-2.58704 c 1.30731,-1.51658 1.13214,1.2919 0,0 z m 3.30878,-2.20486 c -4.42527,-4.70498 5.48445,2.67221 0.0904,0.0701 l -8.6e-4,-6.7e-4 z m -40.52684,-4.57788 c -1.04934,-3.68047 1.42122,-4.50301 1.23297,-0.3864 0.0674,0.81222 -0.91913,0.90473 -1.23297,0.3864 z m 38.27639,-0.62659 c -1.58025,-6.10122 4.40173,2.22619 0,0 z m -35.67474,-1.28419 c -1.87746,-2.58938 -5.05362,-11.00901 0.90252,-6.64574 -0.3853,-5.58098 3.81703,3.0788 3.81216,-2.88727 2.5624,4.52813 0.92571,-2.32603 1.04073,-4.44757 4.12292,2.75508 1.29748,12.72365 -4.13569,11.51014 -0.84972,0.44964 -0.29503,4.19241 -1.61972,2.47044 z m 3.39558,-1.42641 c -0.006,-2.05935 2.43479,-1.31944 0,0 z m -9.525,-1.52173 c -3.6922,-0.61952 -5.1153,-6.45952 -0.92373,-1.96067 -0.18566,-0.18262 2.10916,2.62558 0.92373,1.96067 z m 41.62777,-2.27224 c 1.29963,-4.22784 1.69064,3.22422 0,0 z m -26.61719,-0.99096 c 0.75906,-4.02071 3.06698,-7.87854 3.7207,-4.5962 2.92173,-3.47455 2.5516,-12.37211 6.35577,-12.90513 0.0643,2.65098 -1.80888,11.80927 1.10357,10.10462 -1.01026,-5.26069 5.16244,-6.6032 5.66184,-3.79569 2.29546,-1.14547 0.14834,6.7633 3.58253,6.36523 1.32307,-2.06037 4.28256,-5.78655 2.71493,-0.52509 -2.80134,4.99665 -13.97133,4.39335 -16.11839,1.73882 3.02113,-6.80092 -6.43015,6.92122 -7.02095,3.61344 z m 18.5033,0.0882 c 1.1583,-1.23238 1.39156,1.55786 0,0 z m 2.34705,0.0468 c 0.34337,-3.43411 3.65977,0.96956 0,0 z m -30.58671,-5.72542 c -1.27088,-5.04118 2.53778,3.65164 0,0 z m 34.57878,-2.80837 c -0.90239,-2.59868 1.72868,1.83863 0,0 z m -24.64116,-0.79705 c -1.20099,-4.15412 1.83391,2.53376 0,0 z m -8.10718,-0.60546 c -1.25995,-2.4207 3.24643,2.75553 0,0 z m 2.24395,-1.0466 c 0.19168,-1.49902 1.41454,1.96916 0,0 z m -8.29028,-4.03211 c 1.93707,-3.03764 3.51634,2.19943 0,0 z m 8.29028,-1.25955 c 1.39618,-1.8127 0.25884,1.36631 0,0 z m 4.67493,-0.29684 c -2.41113,-3.41427 4.46536,1.3457 0.20713,0.0603 z m -18.59139,-1.87985 c -5.30788,-2.70367 3.40825,0.0589 0.0684,0.008 z m 21.32479,-0.29276 c -1.34087,-1.19483 4.07862,1.543 0,0 z m 4.08581,-3.29031 c -1.33159,-3.52348 2.21631,1.81525 0,0 z m -13.3363,0.0271 c -1.55298,-3.98197 4.65985,2.11705 0,0 z m -7.15807,-2.20953 c -1.39481,-3.99902 2.94073,0.16974 1.10405,0.70466 z m 18.86705,-0.54221 c -0.31453,-1.46083 1.48505,0.90632 0,0 z m 3.90402,-5.15159 c -5.98721,-7.64854 6.29734,2.42103 0,0 z m 4.13263,-0.73385 c -2.03092,-1.5962 1.31436,-1.25294 0,0 z m -12.61181,-1.33973 c 1.4379,-2.94007 5.51442,2.75411 0,0 z m 1.09782,-1.72864 c 1.4326,-2.107 1.38188,1.3702 0,0 z m 2.60504,-0.37848 c -2.07895,-2.86014 3.22527,2.91836 0,0 z m -28.38621,-0.228 c 0.66173,-3.4936 9.33385,-1.99892 2.95114,-0.76618 -0.95746,0.30633 -1.87367,1.18898 -2.95114,0.76618 z m 20.62641,-0.29978 c 1.3342,-2.739 0.81925,2.04953 0,0 z m -14.46389,-3.12728 c 3.11281,-3.171386 4.4402,-0.27961 0,0 z"
         id="path85"
         inkscape:connector-curvature="0"
         sodipodi:nodetypes="ccccccccccccccccccccccccccccccccccccccccccccccccccccccccccccccccccccccccccccccccccccccccccccccccccccccccccccccccccccccccccccccccccccccccccccccccccccccccccccccccccccccccccccccccccccccccccccccccccccccccccccc" /></g></g></svg>